<svg xmlns="http://www.w3.org/2000/svg" viewBox="0 0 64 64" width="64" height="64">
  <!-- Background circle -->
  <circle cx="32" cy="32" r="32" fill="#0ea5e9"/>

  <!-- Neural network nodes -->
  <!-- Input layer -->
  <circle cx="16" cy="20" r="3" fill="#ffffff"/>
  <circle cx="16" cy="32" r="3" fill="#ffffff"/>
  <circle cx="16" cy="44" r="3" fill="#ffffff"/>

  <!-- Hidden layer -->
  <circle cx="32" cy="16" r="3" fill="#ffffff"/>
  <circle cx="32" cy="32" r="3" fill="#ffffff"/>
  <circle cx="32" cy="48" r="3" fill="#ffffff"/>

  <!-- Output layer -->
  <circle cx="48" cy="26" r="3" fill="#ffffff"/>
  <circle cx="48" cy="38" r="3" fill="#ffffff"/>

  <!-- Connections -->
  <line x1="16" y1="20" x2="32" y2="16" stroke="#ffffff" stroke-width="1" opacity="0.6"/>
  <line x1="16" y1="20" x2="32" y2="32" stroke="#ffffff" stroke-width="1" opacity="0.6"/>
  <line x1="16" y1="32" x2="32" y2="16" stroke="#ffffff" stroke-width="1" opacity="0.6"/>
  <line x1="16" y1="32" x2="32" y2="32" stroke="#ffffff" stroke-width="1" opacity="0.6"/>
  <line x1="16" y1="32" x2="32" y2="48" stroke="#ffffff" stroke-width="1" opacity="0.6"/>
  <line x1="16" y1="44" x2="32" y2="32" stroke="#ffffff" stroke-width="1" opacity="0.6"/>
  <line x1="16" y1="44" x2="32" y2="48" stroke="#ffffff" stroke-width="1" opacity="0.6"/>

  <line x1="32" y1="16" x2="48" y2="26" stroke="#ffffff" stroke-width="1" opacity="0.6"/>
  <line x1="32" y1="16" x2="48" y2="38" stroke="#ffffff" stroke-width="1" opacity="0.6"/>
  <line x1="32" y1="32" x2="48" y2="26" stroke="#ffffff" stroke-width="1" opacity="0.6"/>
  <line x1="32" y1="32" x2="48" y2="38" stroke="#ffffff" stroke-width="1" opacity="0.6"/>
  <line x1="32" y1="48" x2="48" y2="26" stroke="#ffffff" stroke-width="1" opacity="0.6"/>
  <line x1="32" y1="48" x2="48" y2="38" stroke="#ffffff" stroke-width="1" opacity="0.6"/>
</svg>
